# xmcd
#
# Track frame offsets:
#	150
#	15606
#	33863
#	49754
#	64727
#	83643
#	104106
#	120299
#	146630
#	164606
#	183237
#	203076
#	224753
#	244527
#	266679
#	282419
#	300949
#
# Disc length: 4261 seconds
#
# Revision: 0
# Processed by: cddbd v1.4PL0 Copyright (c) Steve Scherf et al.
# Submitted via: EasyCDDAExtractor 4.6.9.1
#
DISCID=f010a311
DTITLE=Barry White - The Ultimate Collection
DYEAR=1998
DGENRE=R&B
TTITLE0=You're The First The Last, My Everything
TTITLE1=Can't Get Enough Of Your Love Bebe 
TTITLE2=Let The Music Play
TTITLE3=Don't Make Me Wait Too Long
TTITLE4=I'll Do For You Anything You Want Me To
TTITLE5=Sho'You Right
TTITLE6=What Am I Gonna Do With You
TTITLE7=Come On
TTITLE8=I'm Gonna Love You Just A Little More Bebe
TTITLE9=Never, Never Gonna Give You Up
TTITLE10=Baby We Bether Try And Get It Together
TTITLE11=Just The Way You Are 
TTITLE12=I'm Qualified To Satisfy You
TTITLE13=Dark And Lovely 
TTITLE14=You See The Trouble With Me
TTITLE15=The Right Night
TTITLE16=Loves Theme
EXTD=
EXTT0=
EXTT1=
EXTT2=
EXTT3=
EXTT4=
EXTT5=
EXTT6=
EXTT7=
EXTT8=
EXTT9=
EXTT10=
EXTT11=
EXTT12=
EXTT13=
EXTT14=
EXTT15=
EXTT16=
PLAYORDER=
